<?xml version="1.0" encoding="UTF-8"?>
<!DOCTYPE svg PUBLIC "-//W3C//DTD SVG 1.1//EN" "http://www.w3.org/Graphics/SVG/1.1/DTD/svg11.dtd">
<!-- Creator: CorelDRAW 2017 -->
<svg xmlns="http://www.w3.org/2000/svg" xml:space="preserve" width="980mm" height="980mm" version="1.1" style="shape-rendering:geometricPrecision; text-rendering:geometricPrecision; image-rendering:optimizeQuality; fill-rule:evenodd; clip-rule:evenodd"
viewBox="0 0 98000 98000"
 xmlns:xlink="http://www.w3.org/1999/xlink"
 xmlns:dc="http://purl.org/dc/elements/1.1/"
 xmlns:cc="http://creativecommons.org/ns#"
 xmlns:rdf="http://www.w3.org/1999/02/22-rdf-syntax-ns#"
 xmlns:svg="http://www.w3.org/2000/svg"
 xmlns:sodipodi="http://sodipodi.sourceforge.net/DTD/sodipodi-0.dtd"
 xmlns:inkscape="http://www.inkscape.org/namespaces/inkscape"
 inkscape:version="0.48.3.1 r9886"
 sodipodi:docname="bicycle.svg">
 <defs>
  <style type="text/css">
   <![CDATA[
    .fil0 {fill:black}
   ]]>
  </style>
 </defs>
 <g id="Layer_x0020_1">
  <metadata id="CorelCorpID_0Corel-Layer"/>
  <g id="_997572032">
   <sodipodi:namedview pagecolor="#ffffff" bordercolor="#666666" borderopacity="1" objecttolerance="10" gridtolerance="10" guidetolerance="10" inkscape:pageopacity="0" inkscape:pageshadow="2" inkscape:window-width="1855" inkscape:window-height="1056" id="namedview4" showgrid="false" inkscape:zoom="0.58910689" inkscape:cx="380.36288" inkscape:cy="294.03105" inkscape:window-x="65" inkscape:window-y="24" inkscape:window-maximized="1" inkscape:current-layer="svg2"/>
   <path id="path2987" class="fil0" d="M39322.78 15408.45c-468.25,-74.14 -815.31,-184.54 -1174.33,-373.54 -1431.04,-753.37 -2104.03,-2448.59 -1587.34,-3998.39 267.43,-802.15 874.94,-1505.81 1623.43,-1880.39 319.19,-159.74 586.78,-249.14 961.11,-321.1 252.35,-48.52 351.01,-54.53 666.61,-40.65 575.61,25.31 986.8,135.85 1483.71,398.85l272.3 144.12 337.35 -371.53 337.35 -371.53 -353.13 -1048.92c-194.22,-576.9 -362.03,-1066.95 -372.9,-1089 -15.14,-30.69 -149.03,-54.41 -571.19,-101.23 -350.39,-38.86 -584.4,-77.3 -641.92,-105.44 -182.63,-89.38 -234.55,-329.49 -109.29,-505.41 109.44,-153.69 112.64,-153.64 1668.23,23.82 778.54,88.82 1454.02,173.8 1501.07,188.85 193.26,61.82 271.21,341.53 144.64,518.98 -100.6,141.05 -188.14,151.79 -722.65,88.72 -256.3,-30.23 -479.11,-54.98 -495.14,-54.98 -22.97,0 530.5,1705.88 565.34,1742.45 7.83,8.22 4535.58,-1186.19 4558.53,-1202.53 4.82,-3.43 -62.6,-158.7 -149.82,-345.04l-158.59 -338.8 110.13 -62.89c60.57,-34.59 288.73,-156.46 507.01,-270.83 218.28,-114.37 417.32,-223.36 442.3,-242.19 30.52,-23.01 80.27,-184.56 151.64,-492.48 118.32,-510.44 160.65,-595.5 320.2,-643.3 207.55,-62.18 407.43,63.2 437.54,274.47 7.31,51.27 -45.02,332.99 -129.06,694.78l-141.35 608.54 -381.89 204.65c-210.04,112.56 -391.23,207.95 -402.66,211.98 -18.39,6.48 992.58,2173.99 1036.29,2221.8 9.58,10.48 82.67,1.62 162.41,-19.7 363.98,-97.27 614.24,-124.55 991.65,-108.07 206.95,9.03 469.66,38.46 595.31,66.68 1290.9,289.93 2250.7,1255.21 2541.09,2555.58 70.52,315.79 84.26,913.92 28.26,1230.31 -242.62,1370.78 -1294,2456.02 -2627.2,2711.81 -1277.1,245.03 -2561.32,-250.07 -3326.9,-1282.61 -416.54,-561.79 -636.93,-1243.97 -636.93,-1971.59 0,-1106.29 526.64,-2123.95 1409.35,-2723.37 127.08,-86.3 230.55,-163.69 229.93,-171.98 -4.26,-56.47 -470.79,-991.78 -490.3,-982.97 -20.34,9.18 -3125.31,3692.77 -3911.7,4640.66 0.08,1.03 -171.75,-12.64 -361.06,-27.11l-333.67 -18.54c-183.52,-10.2 -341.99,-8.94 -352.15,2.8 -10.16,11.73 -40.3,104.68 -66.98,206.54 -380.44,1452.53 -1734.66,2465.68 -3266.45,2443.78 -138.63,-1.98 -281.81,-8.32 -318.19,-14.08l0.01 0.02zm1061.54 -758.63c712.28,-183.48 1335.66,-685.97 1662.84,-1340.35 100.83,-201.68 212.5,-499.24 212.5,-566.26 0,-46.49 -2.31,-46.7 -1785.94,-161.8 -785.81,-50.71 -1510.27,-99.79 -1609.9,-109.06l-181.15 -16.87 318.02 -320.44c174.91,-176.24 717.16,-760.38 1205,-1298.08l886.98 -977.64 -97.81 -55.01c-742.88,-417.82 -1702.45,-437.63 -2473.89,-51.08 -690.04,345.77 -1162.62,935.53 -1373.78,1714.42 -85.43,315.12 -84.3,964.19 2.24,1286.23 268,997.29 1019.96,1711.46 2036.45,1934.11 321.48,70.41 841.22,53.87 1198.43,-38.14l0.01 -0.03zm10094.25 6.84c892.35,-124.11 1686.83,-732.72 2035.4,-1559.22 157.85,-374.28 207.16,-627.78 205.78,-1057.97 -1.04,-323.86 -11.66,-422.86 -68.17,-635.3 -330.35,-1242.09 -1428.62,-2044.51 -2705.78,-1976.89 -257.9,13.65 -506.04,58.57 -551.96,99.91 -12.54,11.28 242.79,578.19 567.38,1259.79 646.99,1358.58 656.97,1387.88 532.26,1562.72 -131.39,184.2 -422.73,176.86 -545.49,-13.75 -34.73,-53.92 -322.99,-647.78 -640.59,-1319.69l-577.45 -1221.65 -76.32 44.26c-141.84,82.25 -425.4,335.67 -572.46,511.6 -275.54,329.65 -466.6,718.12 -559.2,1136.96 -73.48,332.38 -60,931.2 28.21,1253.19 222.7,812.87 824.48,1481.05 1595.12,1771.12 408,153.57 892.47,206.23 1333.26,144.92l0.01 0zm-7062.14 -2598.29c-7.18,-18.71 -212.1,-622.96 -455.37,-1342.76 -243.27,-719.81 -450.01,-1322.19 -459.41,-1338.63 -10.18,-17.81 -94.33,56.07 -208.12,182.71 -186.93,208.05 -190.05,213.84 -145.52,270.14 563.39,712.24 814.22,1292.52 869.49,2011.48l17.07 222.03 121.87 9.75c261.38,20.92 273.42,20.24 260,-14.73l-0.01 0.01zm-1077.4 -121.26c0,-127.07 -74.31,-510.15 -130.71,-673.8 -79.31,-230.14 -227.05,-508.04 -393.67,-740.5 -81.6,-113.84 -157.02,-212.33 -167.62,-218.88 -10.59,-6.55 -341.56,342.57 -735.48,775.83 -670.99,738 -711.6,788.31 -643.17,796.85 120.26,15.01 1781.67,129.45 1931.74,133.06 136.07,3.27 138.91,1.79 138.91,-72.57l0 0.01zm3357.12 -2184.3c903.67,-1075.77 1640.07,-1958.91 1636.44,-1962.54 -9.63,-9.63 -4220.9,1112.93 -4237.52,1129.55 -7.72,7.72 187.15,608.62 433.03,1335.33 485.18,1433.94 501.09,1479.13 515.38,1463.87 5.3,-5.66 749.01,-890.46 1652.67,-1966.22l0 0.01z" inkscape:connector-curvature="0" sodipodi:nodetypes="ssssssscccssssssssssscscssssssscsssssssssssscsccssssscsssscsscsssssccsssssssssscsssssscssssscscsssssssssscsss"/>
  </g>
 </g>
</svg>
