<svg height='300px' width='300px'  fill="#000000" xmlns="http://www.w3.org/2000/svg" xmlns:xlink="http://www.w3.org/1999/xlink" version="1.1" x="0px" y="0px" viewBox="0 0 100 100" enable-background="new 0 0 100 100" xml:space="preserve"><path d="M76.454,50.452c-0.786,0-1.552,0.082-2.301,0.213l-3.79-11.997h1.154c0.552,0,1.071-0.259,1.403-0.701  c0.331-0.441,0.436-1.013,0.282-1.542l-3.549-12.251c-0.218-0.75-0.904-1.267-1.686-1.267h-3.08c-0.969,0-1.755,0.786-1.755,1.755  s0.786,1.755,1.755,1.755h1.761l2.533,8.741h-1.214c-0.56,0-1.086,0.267-1.416,0.718s-0.427,1.033-0.258,1.566l1.042,3.299  l-25.845,7.105l-0.708-2.24l4.297-2.076c0.873-0.421,1.238-1.471,0.817-2.343c-0.422-0.873-1.471-1.239-2.344-0.817l-11.614,5.61  c-0.873,0.421-1.238,1.471-0.817,2.343c0.303,0.627,0.93,0.992,1.582,0.992c0.256,0,0.516-0.057,0.762-0.175l4.124-1.992  l0.706,2.235l-5.678,4.664c-2.381-2.224-5.567-3.596-9.075-3.596c-7.345,0-13.32,5.975-13.32,13.32s5.976,13.321,13.32,13.321  c7.001,0,12.746-5.432,13.27-12.301l2.753-0.153c0.789,1.846,2.621,3.144,4.752,3.144c2.849,0,5.165-2.317,5.165-5.166  c0-0.601-0.123-1.169-0.312-1.706l19.495-15.96l2.141,6.775c-4.526,2.13-7.674,6.722-7.674,12.047  c0,7.345,5.976,13.321,13.32,13.321c7.346,0,13.321-5.976,13.321-13.321S83.8,50.452,76.454,50.452z M41.189,58.535  c-0.846,0.651-1.476,1.552-1.792,2.598l-2.771,0.154c-0.311-1.636-0.925-3.162-1.776-4.528l4.588-3.769L41.189,58.535z   M32.113,59.005c0.429,0.769,0.752,1.602,0.963,2.479l-4.27,0.238L32.113,59.005z M23.545,73.583c-5.409,0-9.811-4.401-9.811-9.811  s4.401-9.811,9.811-9.811c2.416,0,4.626,0.881,6.338,2.334l-7.451,6.121c-0.587,0.481-0.797,1.286-0.521,1.993  c0.264,0.677,0.915,1.118,1.635,1.118c0.032,0,0.065-0.001,0.098-0.002l9.63-0.536C32.67,69.825,28.542,73.583,23.545,73.583z   M46.95,58.194c-0.714-0.427-1.534-0.686-2.416-0.723l-1.983-6.275l19.491-5.359L46.95,58.194z M76.454,73.583  c-5.409,0-9.811-4.401-9.811-9.811c0-3.756,2.124-7.021,5.231-8.669l2.906,9.199c0.236,0.748,0.928,1.227,1.673,1.227  c0.175,0,0.354-0.026,0.529-0.082c0.924-0.292,1.437-1.278,1.145-2.202l-2.906-9.197c0.405-0.051,0.814-0.086,1.232-0.086  c5.41,0,9.812,4.401,9.812,9.811S81.864,73.583,76.454,73.583z"></path></svg>